<?xml version="1.0" encoding="UTF-8"?>
<svg version="1.1" xmlns="http://www.w3.org/2000/svg" width="120" height="100">
<path d="M0 0 C1.23137695 -0.00945648 2.46275391 -0.01891296 3.73144531 -0.02865601 C5.07617514 -0.0232863 6.42090204 -0.01713334 7.765625 -0.01025391 C9.1442073 -0.01227487 10.52278855 -0.0151865 11.90136719 -0.01895142 C14.78981714 -0.02337375 17.67798867 -0.01694699 20.56640625 -0.00292969 C24.26892254 0.01416261 27.97078646 0.00432088 31.67327881 -0.01364708 C34.51974402 -0.02448762 37.36605455 -0.02103744 40.21252441 -0.0132637 C41.57767819 -0.01126242 42.94284602 -0.01371849 44.3079834 -0.02070236 C46.2157362 -0.02832031 48.12353824 -0.01465046 50.03125 0 C51.65981934 0.00358017 51.65981934 0.00358017 53.32128906 0.00723267 C56.015625 0.38818359 56.015625 0.38818359 57.86836243 1.72477722 C59.70775099 4.39169126 59.35038205 6.8350623 59.30859375 10.02490234 C59.29892578 11.32363281 59.28925781 12.62236328 59.27929688 13.96044922 C59.25423085 15.33219998 59.22883601 16.70394477 59.203125 18.07568359 C59.1880752 19.45913283 59.1743873 20.8425976 59.16210938 22.22607422 C59.12669723 25.61383567 59.07730554 29.00081499 59.015625 32.38818359 C59.92852295 32.37247314 60.8414209 32.3567627 61.78198242 32.34057617 C65.1832451 32.2893139 68.58409463 32.2517692 71.9855957 32.22338867 C73.45506282 32.20834293 74.92448534 32.18790121 76.39379883 32.16186523 C78.5113427 32.12529404 80.62829065 32.10841559 82.74609375 32.09521484 C84.65491333 32.07164917 84.65491333 32.07164917 86.60229492 32.04760742 C90.25785049 32.41235243 92.11636858 33.1785708 95.015625 35.38818359 C97.63289191 40.62271741 96.32931905 49.00594617 96.36572266 54.83642578 C96.38229479 56.78413837 96.40960138 58.73178983 96.44775391 60.67919922 C96.50246587 63.48616096 96.524386 66.2916983 96.5390625 69.09912109 C96.56173187 69.96902679 96.58440125 70.8389325 96.60775757 71.73519897 C96.5867179 77.74503606 96.5867179 77.74503606 93.74584961 80.94433594 C91.0939108 82.34678305 89.75316814 82.86871926 86.80859375 82.77880859 C86.05771484 82.76591797 85.30683594 82.75302734 84.53320312 82.73974609 C83.76427734 82.70623047 82.99535156 82.67271484 82.203125 82.63818359 C81.41486328 82.62013672 80.62660156 82.60208984 79.81445312 82.58349609 C77.88098239 82.53662408 75.94814215 82.46488769 74.015625 82.38818359 C74.015625 84.69818359 74.015625 87.00818359 74.015625 89.38818359 C76.325625 89.38818359 78.635625 89.38818359 81.015625 89.38818359 C81.015625 93.01818359 81.015625 96.64818359 81.015625 100.38818359 C69.7240855 100.457623 58.4325966 100.51096403 47.14088726 100.54362011 C41.89796609 100.55929156 36.65519075 100.58055685 31.41235352 100.61450195 C26.35491816 100.64704261 21.29762327 100.66502546 16.24009132 100.67281532 C14.3083252 100.67836836 12.37656696 100.68921178 10.44486046 100.70537376 C7.74391296 100.72707772 5.04354964 100.73015348 2.3425293 100.72875977 C1.53980087 100.73954559 0.73707245 100.75033142 -0.08998108 100.76144409 C-5.52707346 100.73098513 -5.52707346 100.73098513 -7.68954182 99.1099596 C-9.99762287 96.04083948 -9.39854962 92.16194781 -9.37255859 88.46630859 C-9.37781555 87.55385376 -9.38307251 86.64139893 -9.38848877 85.70129395 C-9.40171076 82.68008389 -9.39294284 79.65939916 -9.3828125 76.63818359 C-9.3848326 74.54215392 -9.3877435 72.44612492 -9.39151001 70.35009766 C-9.39593635 65.95517288 -9.38949227 61.56043089 -9.37548828 57.16552734 C-9.35839632 51.52599539 -9.36823584 45.88689172 -9.38620567 40.24737549 C-9.39703509 35.91858684 -9.39360102 31.58990008 -9.3858223 27.2611084 C-9.38381796 25.18143666 -9.38628771 23.10175574 -9.39326096 21.02209473 C-9.4008615 18.11783261 -9.38929072 15.21426858 -9.37255859 12.31005859 C-9.37863129 11.44658813 -9.38470398 10.58311768 -9.39096069 9.69348145 C-9.3281726 3.82458821 -9.3281726 3.82458821 -7.62896156 1.6676693 C-5.1485157 -0.2621136 -3.10777403 0.00683198 0 0 Z " fill="#86D4F0" transform="translate(17.984375,-0.38818359375)"/>
<path d="M0 0 C16.5 0 33 0 50 0 C50 6.6 50 13.2 50 20 C41.25 20.25 41.25 20.25 38.51269531 20.29785156 C37.43133301 20.34377441 37.43133301 20.34377441 36.328125 20.390625 C35.5949707 20.41157227 34.86181641 20.43251953 34.10644531 20.45410156 C30.97018129 21.26688394 29.87398239 22.3509163 28 25 C27.59006909 27.96857521 27.41507356 30.5592805 27.43359375 33.52734375 C27.42739517 34.3532753 27.42119659 35.17920685 27.41481018 36.03016663 C27.40771711 37.7742495 27.41087717 39.51840016 27.42358398 41.26245117 C27.43743804 43.92559001 27.40339102 46.58520546 27.36523438 49.24804688 C27.364283 50.94531336 27.366143 52.64258422 27.37109375 54.33984375 C27.35783554 55.13269272 27.34457733 55.92554169 27.33091736 56.74241638 C27.40084699 60.91316117 27.67041101 62.56606237 30.27636719 65.99707031 C32.92364256 67.94384757 34.00732031 68.63375543 37.20703125 68.70703125 C37.95791016 68.73603516 38.70878906 68.76503906 39.48242188 68.79492188 C40.25134766 68.80072266 41.02027344 68.80652344 41.8125 68.8125 C42.60076172 68.83763672 43.38902344 68.86277344 44.20117188 68.88867188 C46.13358373 68.94722981 48.06684327 68.97655488 50 69 C50 69.66 50 70.32 50 71 C33.5 71 17 71 0 71 C0 47.57 0 24.14 0 0 Z " fill="#EBEBEB" transform="translate(18,13)"/>
<path d="M0 0 C1.1280455 -0.00945648 2.256091 -0.01891296 3.4183197 -0.02865601 C4.63709305 -0.02258331 5.85586639 -0.01651062 7.11157227 -0.01025391 C8.36301529 -0.01312408 9.61445831 -0.01599426 10.90382385 -0.01895142 C13.55289711 -0.02099482 16.2011425 -0.01695048 18.85009766 -0.00292969 C22.24089765 0.01414526 25.63098437 0.00433184 29.02175808 -0.01364708 C32.26005481 -0.02711447 35.49826621 -0.01767527 38.73657227 -0.01025391 C39.95332138 -0.0163266 41.1700705 -0.02239929 42.4236908 -0.02865601 C43.55488846 -0.01919952 44.68608612 -0.00974304 45.8515625 0 C46.84623032 0.00238678 47.84089813 0.00477356 48.8657074 0.00723267 C51.92268526 0.4509127 53.30559777 1.22713393 55.49047852 3.38818359 C55.94458008 6.29907227 55.94458008 6.29907227 55.88110352 9.80615234 C55.86821289 11.05976563 55.85532227 12.31337891 55.84204102 13.60498047 C55.80852539 14.9153125 55.77500977 16.22564453 55.74047852 17.57568359 C55.72041158 18.9109437 55.70216113 20.24623243 55.68579102 21.58154297 C55.63857655 24.85114505 55.57273036 28.11930551 55.49047852 31.38818359 C53.84047852 31.38818359 52.19047852 31.38818359 50.49047852 31.38818359 C50.49047852 24.12818359 50.49047852 16.86818359 50.49047852 9.38818359 C32.67047852 9.38818359 14.85047852 9.38818359 -3.50952148 9.38818359 C-3.50952148 34.46818359 -3.50952148 59.54818359 -3.50952148 85.38818359 C13.65047852 85.38818359 30.81047852 85.38818359 48.49047852 85.38818359 C48.49047852 86.04818359 48.49047852 86.70818359 48.49047852 87.38818359 C45.02547852 87.88318359 45.02547852 87.88318359 41.49047852 88.38818359 C41.16047852 90.69818359 40.83047852 93.00818359 40.49047852 95.38818359 C35.54047852 95.38818359 30.59047852 95.38818359 25.49047852 95.38818359 C25.82047852 92.74818359 26.15047852 90.10818359 26.49047852 87.38818359 C25.17047852 87.38818359 23.85047852 87.38818359 22.49047852 87.38818359 C22.49047852 88.04818359 22.49047852 88.70818359 22.49047852 89.38818359 C23.15047852 89.38818359 23.81047852 89.38818359 24.49047852 89.38818359 C24.49047852 90.37818359 24.49047852 91.36818359 24.49047852 92.38818359 C23.50047852 92.38818359 22.51047852 92.38818359 21.49047852 92.38818359 C21.49047852 91.39818359 21.49047852 90.40818359 21.49047852 89.38818359 C20.83047852 89.38818359 20.17047852 89.38818359 19.49047852 89.38818359 C20.15047852 91.36818359 20.81047852 93.34818359 21.49047852 95.38818359 C17.53955793 95.4622776 13.58890557 95.51675766 9.63745117 95.55297852 C7.63128478 95.5755061 5.62531325 95.6136193 3.61938477 95.65185547 C2.36254883 95.66152344 1.10571289 95.67119141 -0.18920898 95.68115234 C-1.35178223 95.69686279 -2.51435547 95.71257324 -3.7121582 95.72875977 C-4.63528809 95.61636963 -5.55841797 95.50397949 -6.50952148 95.38818359 C-9.07396803 91.54151377 -8.79770749 88.38493174 -8.78417969 83.92529297 C-8.78929062 83.06160599 -8.79440155 82.19791901 -8.79966736 81.30805969 C-8.81358301 78.44928078 -8.81260529 75.59074237 -8.81030273 72.73193359 C-8.81418822 70.74800527 -8.81852258 68.76407777 -8.82328796 66.78015137 C-8.83075415 62.62065942 -8.83045573 58.46125235 -8.82519531 54.30175781 C-8.81939627 48.96491003 -8.83634029 43.6284088 -8.85953999 38.29161835 C-8.87425246 34.19445761 -8.87515249 30.09738084 -8.87203026 26.00019836 C-8.8725446 24.03216362 -8.87780332 22.06412432 -8.88784218 20.09611511 C-8.90014289 17.34753709 -8.89345368 14.59964087 -8.88183594 11.85107422 C-8.88947968 11.03435745 -8.89712341 10.21764069 -8.90499878 9.37617493 C-8.85438983 3.9746053 -8.85438983 3.9746053 -7.33059692 1.3835144 C-4.79957289 0.0001526 -2.88238384 0.00692203 0 0 Z " fill="#83CEE9" transform="translate(19.509521484375,1.61181640625)"/>
<path d="M0 0 C1.23137695 -0.00945648 2.46275391 -0.01891296 3.73144531 -0.02865601 C5.07617514 -0.0232863 6.42090204 -0.01713334 7.765625 -0.01025391 C9.1442073 -0.01227487 10.52278855 -0.0151865 11.90136719 -0.01895142 C14.78981714 -0.02337375 17.67798867 -0.01694699 20.56640625 -0.00292969 C24.26892254 0.01416261 27.97078646 0.00432088 31.67327881 -0.01364708 C34.51974402 -0.02448762 37.36605455 -0.02103744 40.21252441 -0.0132637 C41.57767819 -0.01126242 42.94284602 -0.01371849 44.3079834 -0.02070236 C46.2157362 -0.02832031 48.12353824 -0.01465046 50.03125 0 C51.65981934 0.00358017 51.65981934 0.00358017 53.32128906 0.00723267 C56.015625 0.38818359 56.015625 0.38818359 57.86836243 1.72477722 C59.70775099 4.39169126 59.35038205 6.8350623 59.30859375 10.02490234 C59.29892578 11.32363281 59.28925781 12.62236328 59.27929688 13.96044922 C59.25423085 15.33219998 59.22883601 16.70394477 59.203125 18.07568359 C59.1880752 19.45913283 59.1743873 20.8425976 59.16210938 22.22607422 C59.12669723 25.61383567 59.07730554 29.00081499 59.015625 32.38818359 C59.92852295 32.37247314 60.8414209 32.3567627 61.78198242 32.34057617 C65.1832451 32.2893139 68.58409463 32.2517692 71.9855957 32.22338867 C73.45506282 32.20834293 74.92448534 32.18790121 76.39379883 32.16186523 C78.5113427 32.12529404 80.62829065 32.10841559 82.74609375 32.09521484 C84.65491333 32.07164917 84.65491333 32.07164917 86.60229492 32.04760742 C90.25785049 32.41235243 92.11636858 33.1785708 95.015625 35.38818359 C97.63289191 40.62271741 96.32931905 49.00594617 96.36572266 54.83642578 C96.38229479 56.78413837 96.40960138 58.73178983 96.44775391 60.67919922 C96.50246587 63.48616096 96.524386 66.2916983 96.5390625 69.09912109 C96.56173187 69.96902679 96.58440125 70.8389325 96.60775757 71.73519897 C96.5867179 77.74503606 96.5867179 77.74503606 93.74584961 80.94433594 C91.0939108 82.34678305 89.75316814 82.86871926 86.80859375 82.77880859 C86.05771484 82.76591797 85.30683594 82.75302734 84.53320312 82.73974609 C83.76427734 82.70623047 82.99535156 82.67271484 82.203125 82.63818359 C81.41486328 82.62013672 80.62660156 82.60208984 79.81445312 82.58349609 C77.88098239 82.53662408 75.94814215 82.46488769 74.015625 82.38818359 C74.015625 84.69818359 74.015625 87.00818359 74.015625 89.38818359 C76.325625 89.38818359 78.635625 89.38818359 81.015625 89.38818359 C81.015625 93.01818359 81.015625 96.64818359 81.015625 100.38818359 C69.7240855 100.457623 58.4325966 100.51096403 47.14088726 100.54362011 C41.89796609 100.55929156 36.65519075 100.58055685 31.41235352 100.61450195 C26.35491816 100.64704261 21.29762327 100.66502546 16.24009132 100.67281532 C14.3083252 100.67836836 12.37656696 100.68921178 10.44486046 100.70537376 C7.74391296 100.72707772 5.04354964 100.73015348 2.3425293 100.72875977 C1.53980087 100.73954559 0.73707245 100.75033142 -0.08998108 100.76144409 C-5.52707346 100.73098513 -5.52707346 100.73098513 -7.68954182 99.1099596 C-9.99762287 96.04083948 -9.39854962 92.16194781 -9.37255859 88.46630859 C-9.37781555 87.55385376 -9.38307251 86.64139893 -9.38848877 85.70129395 C-9.40171076 82.68008389 -9.39294284 79.65939916 -9.3828125 76.63818359 C-9.3848326 74.54215392 -9.3877435 72.44612492 -9.39151001 70.35009766 C-9.39593635 65.95517288 -9.38949227 61.56043089 -9.37548828 57.16552734 C-9.35839632 51.52599539 -9.36823584 45.88689172 -9.38620567 40.24737549 C-9.39703509 35.91858684 -9.39360102 31.58990008 -9.3858223 27.2611084 C-9.38381796 25.18143666 -9.38628771 23.10175574 -9.39326096 21.02209473 C-9.4008615 18.11783261 -9.38929072 15.21426858 -9.37255859 12.31005859 C-9.37863129 11.44658813 -9.38470398 10.58311768 -9.39096069 9.69348145 C-9.3281726 3.82458821 -9.3281726 3.82458821 -7.62896156 1.6676693 C-5.1485157 -0.2621136 -3.10777403 0.00683198 0 0 Z M-5.80445862 3.38450623 C-7.7316145 6.65710984 -7.40006465 10.14303036 -7.37255859 13.83520508 C-7.37781555 14.69728577 -7.38307251 15.55936646 -7.38848877 16.4475708 C-7.40170895 19.30165648 -7.3929428 22.15518584 -7.3828125 25.00927734 C-7.38483284 26.99081021 -7.38774394 28.97234236 -7.39151001 30.95387268 C-7.39593625 35.10921296 -7.3894933 39.26435991 -7.37548828 43.41967773 C-7.35840743 48.74748112 -7.36822878 54.07483077 -7.38620567 59.40261745 C-7.39704488 63.49554362 -7.39359633 67.58836218 -7.3858223 71.68129158 C-7.38382009 73.64570227 -7.38628026 75.61012271 -7.39326096 77.57452202 C-7.40087638 80.32053377 -7.38926944 83.06581059 -7.37255859 85.81176758 C-7.37863129 86.62488907 -7.38470398 87.43801056 -7.39096069 88.27577209 C-7.35576809 91.39597367 -7.14571623 93.99633854 -5.95185852 96.89582825 C-2.90269212 99.20865056 0.21417351 98.91208856 3.88354492 98.84228516 C4.68377579 98.84286926 5.48400665 98.84345337 6.30848694 98.84405518 C8.95479643 98.84126735 11.59998094 98.81014345 14.24609375 98.77880859 C16.08026006 98.77134866 17.91443433 98.76565456 19.74861145 98.76165771 C24.57719918 98.74638183 29.40530597 98.70708326 34.23370361 98.6628418 C39.16029351 98.62193118 44.08696109 98.60365571 49.01367188 98.58349609 C58.68120095 98.54059083 68.34837299 98.47231591 78.015625 98.38818359 C78.015625 96.07818359 78.015625 93.76818359 78.015625 91.38818359 C75.705625 91.05818359 73.395625 90.72818359 71.015625 90.38818359 C71.015625 87.41818359 71.015625 84.44818359 71.015625 81.38818359 C72.76939453 81.33210938 72.76939453 81.33210938 74.55859375 81.27490234 C76.10680175 81.20922079 77.65497742 81.14277421 79.203125 81.07568359 C79.97205078 81.053125 80.74097656 81.03056641 81.53320312 81.00732422 C86.12487353 80.79055008 89.2753376 80.32957465 93.015625 77.38818359 C94.58244989 74.25453381 94.22064844 70.90084952 94.25390625 67.45849609 C94.26601387 66.27838455 94.26601387 66.27838455 94.27836609 65.07443237 C94.29220404 63.40836795 94.3029275 61.74227521 94.31079102 60.07617188 C94.32801201 57.5298896 94.37189917 54.98490323 94.41601562 52.43896484 C94.42614202 50.82048481 94.43465829 49.20199374 94.44140625 47.58349609 C94.46766838 46.44269089 94.46766838 46.44269089 94.49446106 45.27883911 C94.48082659 41.95132344 94.38824593 39.87614328 92.33670044 37.1895752 C89.47567768 34.96912933 88.00043747 34.87234708 84.40844727 34.83886719 C83.28370499 34.81980316 82.15896271 34.80073914 81.00013733 34.78109741 C79.78966232 34.78292023 78.57918732 34.78474304 77.33203125 34.78662109 C76.08437485 34.77805084 74.83671844 34.76948059 73.55125427 34.76065063 C70.91209594 34.74916182 68.27450188 34.74629198 65.63549805 34.75683594 C62.26103383 34.76842435 58.88876574 34.7345676 55.51466465 34.68814659 C52.28713715 34.65151958 49.0597291 34.6590438 45.83203125 34.66162109 C44.62358047 34.6432016 43.4151297 34.6247821 42.1700592 34.60580444 C36.30053415 34.48408906 36.30053415 34.48408906 31.11276245 36.77276611 C29.5291398 38.55447892 29.5291398 38.55447892 28.015625 41.38818359 C28.328125 39.01318359 28.328125 39.01318359 29.015625 36.38818359 C32.0367684 34.374088 32.82222517 34.11981763 36.24609375 33.97412109 C36.96949951 33.93851074 37.69290527 33.90290039 38.43823242 33.86621094 C39.80685425 33.8152124 39.80685425 33.8152124 41.203125 33.76318359 C45.5653125 33.57755859 45.5653125 33.57755859 50.015625 33.38818359 C50.015625 26.78818359 50.015625 20.18818359 50.015625 13.38818359 C33.515625 13.38818359 17.015625 13.38818359 0.015625 13.38818359 C0.015625 37.14818359 0.015625 60.90818359 0.015625 85.38818359 C-0.974375 85.88318359 -0.974375 85.88318359 -1.984375 86.38818359 C-1.984375 61.63818359 -1.984375 36.88818359 -1.984375 11.38818359 C15.835625 11.38818359 33.655625 11.38818359 52.015625 11.38818359 C52.015625 18.64818359 52.015625 25.90818359 52.015625 33.38818359 C53.665625 33.38818359 55.315625 33.38818359 57.015625 33.38818359 C57.11457597 29.45564351 57.1871292 25.52358614 57.23535156 21.59008789 C57.26533781 19.59479345 57.31616286 17.59984777 57.3671875 15.60498047 C57.38007812 14.35136719 57.39296875 13.09775391 57.40625 11.80615234 C57.42719727 10.64881592 57.44814453 9.49147949 57.46972656 8.29907227 C57.30416767 5.34529373 57.30416767 5.34529373 55.3396759 3.73051453 C52.48053463 2.07912481 50.66852086 2.00789895 47.37670898 2 C46.24551132 1.99054352 45.11431366 1.98108704 43.94883728 1.97134399 C42.73208817 1.97741669 41.51533905 1.98348938 40.26171875 1.98974609 C39.009319 1.98687592 37.75691925 1.98400574 36.46656799 1.98104858 C33.81927358 1.97900707 31.17281037 1.98303418 28.52563477 1.99707031 C25.13364474 2.01417997 21.74236594 2.00430642 18.35040188 1.98635292 C15.11248195 1.97290574 11.87464795 1.98231992 8.63671875 1.98974609 C7.4179454 1.9836734 6.19917206 1.97760071 4.94346619 1.97134399 C3.81542068 1.98080048 2.68737518 1.99025696 1.52514648 2 C0.03433815 2.00358017 0.03433815 2.00358017 -1.48658752 2.00723267 C-3.95685564 2.23811865 -3.95685564 2.23811865 -5.80445862 3.38450623 Z " fill="#0B0E13" transform="translate(17.984375,-0.38818359375)"/>
<path d="M0 0 C0.33 0 0.66 0 1 0 C1.01458252 1.01425049 1.02916504 2.02850098 1.04418945 3.07348633 C1.10216253 6.83654029 1.17939459 10.59899521 1.26245117 14.36157227 C1.29570536 15.99005409 1.32373584 17.61865131 1.34643555 19.24731445 C1.37997357 21.58855361 1.43228585 23.92873486 1.48828125 26.26953125 C1.49467117 26.99775589 1.5010611 27.72598053 1.50764465 28.47627258 C1.57837251 32.30974829 1.57837251 32.30974829 3.19018555 35.68933105 C5.66210734 37.47949862 7.3505753 37.39760384 10.3894043 37.43237305 C11.49031906 37.45216721 12.59123383 37.47196136 13.72550964 37.49235535 C14.91308365 37.49874527 16.10065765 37.50513519 17.32421875 37.51171875 C19.14902519 37.53864555 19.14902519 37.53864555 21.01069641 37.56611633 C24.90292883 37.62037397 28.79503754 37.6541655 32.6875 37.6875 C35.32358498 37.72065932 37.95965361 37.75514766 40.59570312 37.79101562 C47.06369116 37.87610946 53.53169491 37.94439387 60 38 C60 38.33 60 38.66 60 39 C51.585 39.495 51.585 39.495 43 40 C43 42.97 43 45.94 43 49 C45.31 49.33 47.62 49.66 50 50 C50 52.31 50 54.62 50 57 C22.94 57 -4.12 57 -32 57 C-32 56.67 -32 56.34 -32 56 C-23.42 55.67 -14.84 55.34 -6 55 C-6.495 52.525 -6.495 52.525 -7 50 C-6.34 50 -5.68 50 -5 50 C-5 50.99 -5 51.98 -5 53 C-4.01 53 -3.02 53 -2 53 C-2 52.01 -2 51.02 -2 50 C-2.66 50 -3.32 50 -4 50 C-4 49.34 -4 48.68 -4 48 C-2.68 48 -1.36 48 0 48 C1.125 52.75 1.125 52.75 0 55 C6.93 55.495 6.93 55.495 14 56 C14 53.69 14 51.38 14 49 C15 48 15 48 18.5625 47.9375 C19.696875 47.958125 20.83125 47.97875 22 48 C22 47.34 22 46.68 22 46 C4.84 46 -12.32 46 -30 46 C-29.34 45.01 -28.68 44.02 -28 43 C-25.86129761 42.63923645 -25.86129761 42.63923645 -23.18310547 42.65942383 C-22.18221893 42.65965042 -21.1813324 42.65987701 -20.15011597 42.66011047 C-18.52506638 42.68333626 -18.52506638 42.68333626 -16.8671875 42.70703125 C-15.20672897 42.71339851 -15.20672897 42.71339851 -13.51272583 42.71989441 C-9.9665729 42.73672786 -6.42098203 42.7743892 -2.875 42.8125 C-0.47526861 42.82754078 1.92447167 42.84123023 4.32421875 42.85351562 C10.21633859 42.88664662 16.10812915 42.93689223 22 43 C22 42.34 22 41.68 22 41 C20.83082031 41.04640625 19.66164062 41.0928125 18.45703125 41.140625 C16.9088798 41.17815594 15.36070061 41.21455469 13.8125 41.25 C12.65911133 41.30027344 12.65911133 41.30027344 11.48242188 41.3515625 C7.54181864 41.41921234 5.48035931 41.28382014 2.01171875 39.234375 C-1.71505595 35.09512233 -1.08418329 30.71475209 -0.87890625 25.390625 C-0.85529526 24.66381531 -0.83168427 23.93700562 -0.80735779 23.18817139 C-0.73101128 20.87523442 -0.64686319 18.56265707 -0.5625 16.25 C-0.50925021 14.6784028 -0.45651002 13.10678824 -0.40429688 11.53515625 C-0.27543568 7.68987804 -0.13957873 3.84490349 0 0 Z " fill="#3E444A" transform="translate(46,41)"/>
<path d="M0 0 C1.69195496 -0.01891296 1.69195496 -0.01891296 3.41809082 -0.03820801 C5.23850891 -0.02606262 5.23850891 -0.02606262 7.09570312 -0.01367188 C8.3457312 -0.01749878 9.59575928 -0.02132568 10.88366699 -0.02526855 C13.52701218 -0.02799102 16.16887798 -0.02262141 18.81201172 -0.00390625 C22.19512803 0.01888458 25.57697509 0.00575829 28.96004486 -0.01819611 C32.19280946 -0.03614871 35.42542195 -0.02356889 38.65820312 -0.01367188 C39.87181519 -0.0217688 41.08542725 -0.02986572 42.33581543 -0.03820801 C43.4637854 -0.02559937 44.59175537 -0.01299072 45.75390625 0 C47.24138367 0.00477356 47.24138367 0.00477356 48.75891113 0.00964355 C52.12665298 0.66302976 53.31348521 1.81858607 55.37695312 4.51757812 C55.77487868 7.35861645 55.93867063 9.80440107 55.90820312 12.64257812 C55.91394348 13.81844482 55.91394348 13.81844482 55.9197998 15.01806641 C55.92251665 16.67221362 55.91517123 18.32640395 55.8984375 19.98046875 C55.87702204 22.50943974 55.8982441 25.03557027 55.92382812 27.56445312 C55.92118481 29.17383438 55.91605973 30.78321387 55.90820312 32.39257812 C55.91630005 33.14684082 55.92439697 33.90110352 55.93273926 34.67822266 C55.87387617 37.98132552 55.73196202 40.05323061 53.69604492 42.71618652 C50.82701146 44.9447541 49.35683187 45.02359387 45.75390625 45.03515625 C44.62593628 45.04776489 43.49796631 45.06037354 42.33581543 45.07336426 C40.51539734 45.06121887 40.51539734 45.06121887 38.65820312 45.04882812 C37.40817505 45.05265503 36.15814697 45.05648193 34.87023926 45.0604248 C32.22689407 45.06314727 29.58502827 45.05777766 26.94189453 45.0390625 C23.55877822 45.01627167 20.17693116 45.02939796 16.79386139 45.05335236 C13.56109679 45.07130496 10.3284843 45.05872514 7.09570312 45.04882812 C5.88209106 45.05692505 4.668479 45.06502197 3.41809082 45.07336426 C2.29012085 45.06075562 1.16215088 45.04814697 0 45.03515625 C-0.99165161 45.03197388 -1.98330322 45.0287915 -3.00500488 45.0255127 C-6.37274673 44.37212649 -7.55957896 43.21657018 -9.62304688 40.51757812 C-10.02097243 37.6765398 -10.18476438 35.23075518 -10.15429688 32.39257812 C-10.15812378 31.60866699 -10.16195068 30.82475586 -10.16589355 30.01708984 C-10.1686104 28.36294263 -10.16126498 26.7087523 -10.14453125 25.0546875 C-10.12311579 22.52571651 -10.14433785 19.99958598 -10.16992188 17.47070312 C-10.16727856 15.86132187 -10.16215348 14.25194238 -10.15429688 12.64257812 C-10.1623938 11.88831543 -10.17049072 11.13405273 -10.17883301 10.35693359 C-10.11996992 7.05383073 -9.97805577 4.98192564 -7.94213867 2.31896973 C-5.07310521 0.09040215 -3.60292562 0.01156238 0 0 Z M-6.62304688 5.51757812 C-6.82261657 8.07508265 -6.90291514 10.52195953 -6.88867188 13.08007812 C-6.89058533 13.82717041 -6.89249878 14.5742627 -6.89447021 15.34399414 C-6.89583185 16.92431983 -6.89213687 18.50465671 -6.88378906 20.08496094 C-6.87308887 22.50806735 -6.88368467 24.93043236 -6.89648438 27.35351562 C-6.89516278 28.88737143 -6.89260037 30.42122678 -6.88867188 31.95507812 C-6.89272034 32.68218994 -6.8967688 33.40930176 -6.90093994 34.15844727 C-6.99036189 38.29227445 -6.99036189 38.29227445 -4.62304688 41.51757812 C-2.21087265 41.82414144 -2.21087265 41.82414144 0.62109375 41.77636719 C2.26289612 41.78582367 2.26289612 41.78582367 3.93786621 41.79547119 C5.12432739 41.79142273 6.31078857 41.78737427 7.53320312 41.78320312 C8.74641235 41.78511658 9.95962158 41.78703003 11.20959473 41.78900146 C13.77856656 41.79036447 16.34754525 41.78666005 18.91650391 41.77832031 C22.86050816 41.76762273 26.80405688 41.77821206 30.74804688 41.79101562 C33.2389333 41.78969405 35.72981945 41.7871317 38.22070312 41.78320312 C40.0003949 41.78927582 40.0003949 41.78927582 41.81604004 41.79547119 C42.91057495 41.78916687 44.00510986 41.78286255 45.1328125 41.77636719 C46.09940796 41.774776 47.06600342 41.77318481 48.06188965 41.77154541 C50.57107678 41.74064211 50.57107678 41.74064211 52.37695312 39.51757812 C52.57652282 36.9600736 52.65682139 34.51319672 52.64257812 31.95507812 C52.64449158 31.20798584 52.64640503 30.46089355 52.64837646 29.69116211 C52.6497381 28.11083642 52.64604312 26.53049954 52.63769531 24.95019531 C52.62699512 22.5270889 52.63759092 20.10472389 52.65039062 17.68164062 C52.64906903 16.14778482 52.64650662 14.61392947 52.64257812 13.08007812 C52.64662659 12.35296631 52.65067505 11.62585449 52.65484619 10.87670898 C52.74426814 6.7428818 52.74426814 6.7428818 50.37695312 3.51757812 C47.9647789 3.21101481 47.9647789 3.21101481 45.1328125 3.25878906 C44.03827759 3.25248474 42.94374268 3.24618042 41.81604004 3.23968506 C40.03634827 3.24575775 40.03634827 3.24575775 38.22070312 3.25195312 C37.0074939 3.25003967 35.79428467 3.24812622 34.54431152 3.24615479 C31.97533969 3.24479178 29.406361 3.2484962 26.83740234 3.25683594 C22.89339809 3.26753352 18.94984937 3.25694419 15.00585938 3.24414062 C12.51497295 3.2454622 10.0240868 3.24802455 7.53320312 3.25195312 C6.34674194 3.24790466 5.16028076 3.2438562 3.93786621 3.23968506 C2.29606384 3.24914154 2.29606384 3.24914154 0.62109375 3.25878906 C-0.82879944 3.26117584 -0.82879944 3.26117584 -2.3079834 3.26361084 C-4.81717053 3.29451414 -4.81717053 3.29451414 -6.62304688 5.51757812 Z " fill="#D8D9D9" transform="translate(56.623046875,34.482421875)"/>
<path d="M0 0 C7.36273052 -0.06955197 14.72539005 -0.12283745 22.08838272 -0.15543652 C25.50744492 -0.17108358 28.92628213 -0.1923037 32.34521484 -0.22631836 C36.27699071 -0.26518985 40.2086759 -0.27971721 44.140625 -0.29296875 C45.97986542 -0.31619453 45.97986542 -0.31619453 47.85626221 -0.33988953 C48.99714294 -0.34011612 50.13802368 -0.34034271 51.31347656 -0.34057617 C52.31719299 -0.34723801 53.32090942 -0.35389984 54.3550415 -0.36076355 C57.43586525 0.05945057 58.80512003 0.82129536 61 3 C61.45410156 5.91088867 61.45410156 5.91088867 61.390625 9.41796875 C61.37773438 10.67158203 61.36484375 11.92519531 61.3515625 13.21679688 C61.31804687 14.52712891 61.28453125 15.83746094 61.25 17.1875 C61.22993307 18.5227601 61.21168262 19.85804883 61.1953125 21.19335938 C61.14809803 24.46296146 61.08225184 27.73112192 61 31 C59.35 31 57.7 31 56 31 C56 23.74 56 16.48 56 9 C38.18 9 20.36 9 2 9 C2 8.67 2 8.34 2 8 C8.6 8 15.2 8 22 8 C21.67 7.01 21.34 6.02 21 5 C22.98 4.34 24.96 3.68 27 3 C27 2.34 27 1.68 27 1 C18.09 1 9.18 1 0 1 C0 0.67 0 0.34 0 0 Z " fill="#7DC4DF" transform="translate(14,2)"/>
<path d="M0 0 C1.09453491 -0.00630432 2.18906982 -0.01260864 3.31677246 -0.019104 C5.09646423 -0.01303131 5.09646423 -0.01303131 6.91210938 -0.00683594 C8.1253186 -0.00874939 9.33852783 -0.01066284 10.58850098 -0.01263428 C13.15747281 -0.01399728 15.7264515 -0.01029286 18.29541016 -0.00195312 C22.23941441 0.00874446 26.18296313 -0.00184487 30.12695312 -0.01464844 C32.61783955 -0.01332686 35.1087257 -0.01076452 37.59960938 -0.00683594 C38.78607056 -0.0108844 39.97253174 -0.01493286 41.19494629 -0.019104 C42.83674866 -0.00964752 42.83674866 -0.00964752 44.51171875 0 C45.96161194 0.00238678 45.96161194 0.00238678 47.4407959 0.00482178 C49.75585938 0.25878906 49.75585938 0.25878906 51.75585938 2.25878906 C51.95542907 4.81629359 52.03572764 7.26317047 52.02148438 9.82128906 C52.02435455 10.94192749 52.02435455 10.94192749 52.02728271 12.08520508 C52.02864435 13.66553077 52.02494937 15.24586765 52.01660156 16.82617188 C52.00590137 19.24927828 52.01649717 21.67164329 52.02929688 24.09472656 C52.02797528 25.62858237 52.02541287 27.16243772 52.02148438 28.69628906 C52.02553284 29.42340088 52.0295813 30.1505127 52.03375244 30.8996582 C51.98578298 36.02886546 51.98578298 36.02886546 49.75585938 38.25878906 C47.4407959 38.51275635 47.4407959 38.51275635 44.51171875 38.51757812 C42.86991638 38.52703461 42.86991638 38.52703461 41.19494629 38.53668213 C40.00848511 38.53263367 38.82202393 38.52858521 37.59960938 38.52441406 C36.38640015 38.52632751 35.17319092 38.52824097 33.92321777 38.5302124 C31.35424594 38.53157541 28.78526725 38.52787098 26.21630859 38.51953125 C22.27230434 38.50883367 18.32875562 38.519423 14.38476562 38.53222656 C11.8938792 38.53090499 9.40299305 38.52834264 6.91210938 38.52441406 C5.1324176 38.53048676 5.1324176 38.53048676 3.31677246 38.53668213 C2.22223755 38.53037781 1.12770264 38.52407349 0 38.51757812 C-0.96659546 38.51598694 -1.93319092 38.51439575 -2.92907715 38.51275635 C-5.24414062 38.25878906 -5.24414062 38.25878906 -7.24414062 36.25878906 C-7.44371032 33.70128454 -7.52400889 31.25440766 -7.50976562 28.69628906 C-7.51167908 27.94919678 -7.51359253 27.20210449 -7.51556396 26.43237305 C-7.5169256 24.85204736 -7.51323062 23.27171048 -7.50488281 21.69140625 C-7.49418262 19.26829984 -7.50477842 16.84593483 -7.51757812 14.42285156 C-7.51625653 12.88899575 -7.51369412 11.35514041 -7.50976562 9.82128906 C-7.51381409 9.09417725 -7.51786255 8.36706543 -7.52203369 7.61791992 C-7.4629909 1.30467934 -6.2075896 0.01021879 0 0 Z M-5.24414062 3.25878906 C-5.34492183 5.62277375 -5.38387278 7.95690217 -5.37695312 10.32128906 C-5.37790985 11.02777588 -5.37886658 11.7342627 -5.37985229 12.4621582 C-5.38053395 13.958497 -5.37868067 15.45483873 -5.37451172 16.95117188 C-5.3691632 19.24909063 -5.37445713 21.54681392 -5.38085938 23.84472656 C-5.38019859 25.29524783 -5.37891742 26.74576897 -5.37695312 28.19628906 C-5.37897736 28.88795166 -5.38100159 29.57961426 -5.38308716 30.29223633 C-5.64644796 33.55614544 -5.64644796 33.55614544 -4.24414062 36.25878906 C-2.59222667 36.35747415 -0.93610845 36.38677743 0.71875 36.38818359 C1.77654663 36.39133575 2.83434326 36.39448792 3.92419434 36.3977356 C5.0752063 36.39571136 6.22621826 36.39368713 7.41210938 36.39160156 C8.58471313 36.39255829 9.75731689 36.39351501 10.9654541 36.39450073 C13.45044 36.39518276 15.93542766 36.3933269 18.42041016 36.38916016 C22.23929825 36.38381225 26.05806872 36.38910442 29.87695312 36.39550781 C32.28450547 36.39484704 34.69205774 36.39356588 37.09960938 36.39160156 C38.82612732 36.39463791 38.82612732 36.39463791 40.58752441 36.3977356 C42.17421936 36.39300735 42.17421936 36.39300735 43.79296875 36.38818359 C44.72927124 36.387388 45.66557373 36.38659241 46.63024902 36.38577271 C48.74018997 36.4956855 48.74018997 36.4956855 49.75585938 35.25878906 C49.85664058 32.89480438 49.89559153 30.56067595 49.88867188 28.19628906 C49.8896286 27.48980225 49.89058533 26.78331543 49.89157104 26.05541992 C49.8922527 24.55908113 49.89039942 23.06273939 49.88623047 21.56640625 C49.88088195 19.26848749 49.88617588 16.9707642 49.89257812 14.67285156 C49.89191734 13.2223303 49.89063617 11.77180915 49.88867188 10.32128906 C49.89069611 9.62962646 49.89272034 8.93796387 49.89480591 8.2253418 C50.15816671 4.96143269 50.15816671 4.96143269 48.75585938 2.25878906 C47.10394542 2.16010397 45.4478272 2.13080069 43.79296875 2.12939453 C42.73517212 2.12624237 41.67737549 2.12309021 40.58752441 2.11984253 C39.43651245 2.12186676 38.28550049 2.12389099 37.09960938 2.12597656 C35.92700562 2.12501984 34.75440186 2.12406311 33.54626465 2.12307739 C31.06127875 2.12239536 28.57629109 2.12425122 26.09130859 2.12841797 C22.2724205 2.13376587 18.45365003 2.1284737 14.63476562 2.12207031 C12.22721328 2.12273109 9.81966101 2.12401224 7.41210938 2.12597656 C6.26109741 2.12395233 5.11008545 2.1219281 3.92419434 2.11984253 C2.86639771 2.12299469 1.80860107 2.12614685 0.71875 2.12939453 C-0.21755249 2.13019012 -1.15385498 2.13098572 -2.11853027 2.13180542 C-4.22847122 2.02189263 -4.22847122 2.02189263 -5.24414062 3.25878906 Z " fill="#0E1116" transform="translate(57.244140625,37.7412109375)"/>
<path d="M0 0 C0 7.26 0 14.52 0 22 C11.88 22.33 23.76 22.66 36 23 C36 23.33 36 23.66 36 24 C34.97975739 24.00213753 34.97975739 24.00213753 33.93890381 24.00431824 C26.86592166 24.0239896 19.79380549 24.07820881 12.72119141 24.15258789 C10.08095511 24.17579912 7.4406258 24.19017087 4.80029297 24.19555664 C1.00689522 24.20482274 -2.78503326 24.24576652 -6.578125 24.29296875 C-7.76053772 24.2890361 -8.94295044 24.28510345 -10.16119385 24.28105164 C-16.38924749 24.27900096 -16.38924749 24.27900096 -21.73828125 27.0625 C-23.28473452 30.66291132 -23.60256397 33.84855738 -23.609375 37.70703125 C-23.62591125 38.43242599 -23.64244751 39.15782074 -23.65948486 39.90519714 C-23.70782477 42.20771873 -23.72930285 44.50958066 -23.75 46.8125 C-23.77817168 48.37959023 -23.8081008 49.94664992 -23.83984375 51.51367188 C-23.91357891 55.34239355 -23.96323821 59.17075206 -24 63 C-24.33 63 -24.66 63 -25 63 C-25.1238722 57.96469037 -25.21446514 52.93027303 -25.2746582 47.89379883 C-25.29975714 46.18172755 -25.33384429 44.46976296 -25.37719727 42.75805664 C-25.43805739 40.29286355 -25.46625432 37.82909015 -25.48828125 35.36328125 C-25.52699089 34.22080681 -25.52699089 34.22080681 -25.56648254 33.05525208 C-25.56856138 29.08991828 -25.15717821 27.20866293 -22.74609375 24.0078125 C-19.95594872 21.96779181 -18.93995147 21.39064923 -15.57421875 21.51171875 C-14.85580811 21.52420654 -14.13739746 21.53669434 -13.3972168 21.54956055 C-12.50301025 21.59508057 -11.60880371 21.64060059 -10.6875 21.6875 C-6.3871875 21.8421875 -6.3871875 21.8421875 -2 22 C-2 15.4 -2 8.8 -2 2 C-18.5 2 -35 2 -52 2 C-52 1.67 -52 1.34 -52 1 C-44.91585846 0.85730546 -37.83171075 0.71492051 -30.74755859 0.57275391 C-28.33609882 0.52432319 -25.92464048 0.4758208 -23.51318359 0.42724609 C-20.05306363 0.35756016 -16.59293862 0.28812943 -13.1328125 0.21875 C-11.50776291 0.18593933 -11.50776291 0.18593933 -9.84988403 0.15246582 C-8.8489975 0.13244507 -7.84811096 0.11242432 -6.81689453 0.09179688 C-5.49118942 0.06514954 -5.49118942 0.06514954 -4.13870239 0.03796387 C-2.75929419 0.01347815 -1.3796255 0 0 0 Z " fill="#16191E" transform="translate(70,11)"/>
<path d="M0 0 C11.22 0 22.44 0 34 0 C34 1.98 34 3.96 34 6 C22.78 6 11.56 6 0 6 C0 4.02 0 2.04 0 0 Z " fill="#DFDFE0" transform="translate(62,92)"/>
<path d="M0 0 C1.02802734 0.00322266 2.05605469 0.00644531 3.11523438 0.00976562 C4.72301758 0.02233398 4.72301758 0.02233398 6.36328125 0.03515625 C7.44673828 0.03966797 8.53019531 0.04417969 9.64648438 0.04882812 C12.3229721 0.06061882 14.99934902 0.07707562 17.67578125 0.09765625 C17.67578125 0.75765625 17.67578125 1.41765625 17.67578125 2.09765625 C15.36578125 2.42765625 13.05578125 2.75765625 10.67578125 3.09765625 C10.34578125 5.40765625 10.01578125 7.71765625 9.67578125 10.09765625 C4.72578125 10.09765625 -0.22421875 10.09765625 -5.32421875 10.09765625 C-4.99421875 7.45765625 -4.66421875 4.81765625 -4.32421875 2.09765625 C-5.64421875 1.76765625 -6.96421875 1.43765625 -8.32421875 1.09765625 C-5.26502487 0.07792496 -3.2000385 -0.01767977 0 0 Z " fill="#89D7F4" transform="translate(50.32421875,86.90234375)"/>
<path d="M0 0 C1.7114344 0.00033989 1.7114344 0.00033989 3.45744324 0.00068665 C4.6887648 0.0161705 5.92008636 0.03165436 7.1887207 0.04760742 C9.08011528 0.05397469 9.08011528 0.05397469 11.00971985 0.06047058 C14.35875138 0.0744299 17.70716954 0.10137513 21.05603027 0.13458252 C24.47455549 0.16529512 27.8931441 0.17897842 31.31176758 0.1940918 C38.01701544 0.22720394 44.72197328 0.27743599 51.42700195 0.34057617 C48.87236804 2.89521008 47.92751392 2.59548551 44.38232422 2.61181641 C43.3310585 2.62200302 42.27979279 2.63218964 41.19667053 2.64268494 C39.48730568 2.645895 39.48730568 2.645895 37.7434082 2.64916992 C35.34822344 2.67432645 32.95304121 2.69972453 30.55786133 2.7253418 C26.76774731 2.75412747 22.97767715 2.77813464 19.1875 2.796875 C15.53923768 2.81846235 11.89149296 2.85789591 8.2434082 2.89916992 C6.5370797 2.89934364 6.5370797 2.89934364 4.79627991 2.89952087 C3.74186203 2.91285965 2.68744415 2.92619843 1.60107422 2.93994141 C0.67222916 2.94501205 -0.25661591 2.9500827 -1.21360779 2.95530701 C-3.61862685 3.16450197 -3.61862685 3.16450197 -5.36935425 4.66073608 C-7.3214311 7.38511098 -7.05453397 10.40041492 -7.0847168 13.63354492 C-7.102668 14.33957352 -7.1206192 15.04560211 -7.13911438 15.77302551 C-7.19322983 18.02464859 -7.22711527 20.2760596 -7.26049805 22.52807617 C-7.29367024 24.05610048 -7.32815981 25.58409681 -7.36401367 27.11206055 C-7.4489563 30.85474607 -7.51576052 34.59736858 -7.57299805 38.34057617 C-7.90299805 38.34057617 -8.23299805 38.34057617 -8.57299805 38.34057617 C-8.64714125 33.41100359 -8.70159622 28.48175536 -8.73779297 23.55175781 C-8.75288188 21.87461697 -8.77335552 20.1975156 -8.79931641 18.52050781 C-8.83569615 16.11017114 -8.85272291 13.70035598 -8.8659668 11.28979492 C-8.88145065 10.5396965 -8.89693451 9.78959808 -8.91288757 9.01676941 C-8.91456346 3.83584425 -8.91456346 3.83584425 -7.40002441 1.63977051 C-4.85997994 -0.1664494 -3.10178219 -0.0205416 0 0 Z " fill="#E9E9E9" transform="translate(56.572998046875,34.659423828125)"/>
<path d="M0 0 C6.27 0 12.54 0 19 0 C19 2.31 19 4.62 19 7 C12.73 7 6.46 7 0 7 C0 4.69 0 2.38 0 0 Z " fill="#AFAFAF" transform="translate(70,82)"/>
<path d="M0 0 C0.66 0 1.32 0 2 0 C2.33 10.89 2.66 21.78 3 33 C20.16 33.33 37.32 33.66 55 34 C55 34.33 55 34.66 55 35 C47.48890521 35.1932509 39.97755835 35.37074072 32.46582031 35.53710938 C29.90876778 35.59562316 27.35179613 35.65778776 24.79492188 35.72363281 C21.12645189 35.81747739 17.45789432 35.8983254 13.7890625 35.9765625 C12.64007477 36.00875885 11.49108704 36.0409552 10.30728149 36.0741272 C8.71585831 36.10438492 8.71585831 36.10438492 7.09228516 36.13525391 C5.68663803 36.16856308 5.68663803 36.16856308 4.25259399 36.20254517 C2 36 2 36 0 34 C-0.17502995 31.41896694 -0.23162279 28.94691837 -0.1953125 26.3671875 C-0.1924826 25.61535187 -0.18965271 24.86351624 -0.18673706 24.08889771 C-0.17552874 21.68410422 -0.15042352 19.27968119 -0.125 16.875 C-0.11497102 15.24609912 -0.10584503 13.61719242 -0.09765625 11.98828125 C-0.07558735 7.99204444 -0.04105351 3.99608506 0 0 Z " fill="#131A20" transform="translate(50,40)"/>
<path d="M0 0 C18.81 0 37.62 0 57 0 C57 0.33 57 0.66 57 1 C48.42 1 39.84 1 31 1 C31 1.66 31 2.32 31 3 C32.98 3.33 34.96 3.66 37 4 C36.67 4.99 36.34 5.98 36 7 C31.38 7 26.76 7 22 7 C22 6.01 22 5.02 22 4 C23.65 3.67 25.3 3.34 27 3 C27 2.34 27 1.68 27 1 C18.09 1 9.18 1 0 1 C0 0.67 0 0.34 0 0 Z " fill="#649DB2" transform="translate(14,2)"/>
<path d="M0 0 C4.44926052 0.41314562 6.84100104 3.50461527 9.75 6.5625 C10.25660156 7.08263672 10.76320313 7.60277344 11.28515625 8.13867188 C12.53034405 9.41910084 13.76611502 10.70867554 15 12 C13.387672 16.03082 10.53765404 18.75944137 7.5 21.75 C7.00113281 22.25660156 6.50226563 22.76320313 5.98828125 23.28515625 C2.25341139 27 2.25341139 27 0 27 C1.5255906 23.34858644 3.72480909 21.09881888 6.5625 18.375 C9.69042054 15.48929319 9.69042054 15.48929319 12 12 C11.13375 11.62875 11.13375 11.62875 10.25 11.25 C7.67060021 9.81700012 5.93878408 8.21575324 4 6 C4 5.34 4 4.68 4 4 C3.34 4 2.68 4 2 4 C2 3.34 2 2.68 2 2 C1.34 2 0.68 2 0 2 C0 1.34 0 0.68 0 0 Z " fill="#21313B" transform="translate(86,44)"/>
<path d="M0 0 C1.32 0 2.64 0 4 0 C5.125 4.75 5.125 4.75 4 7 C10.93 7.495 10.93 7.495 18 8 C18 8.33 18 8.66 18 9 C2.82 9 -12.36 9 -28 9 C-28 8.67 -28 8.34 -28 8 C-19.42 7.67 -10.84 7.34 -2 7 C-2.33 5.35 -2.66 3.7 -3 2 C-2.34 2 -1.68 2 -1 2 C-1 2.99 -1 3.98 -1 5 C-0.01 5 0.98 5 2 5 C2 4.01 2 3.02 2 2 C1.34 2 0.68 2 0 2 C0 1.34 0 0.68 0 0 Z " fill="#6198AC" transform="translate(42,89)"/>
<path d="M0 0 C0.99 0.33 1.98 0.66 3 1 C-0.66666667 4.66666667 -4.33333333 8.33333333 -8 12 C-6.46356148 15.68069887 -4.21849055 17.98775204 -1.375 20.75 C-0.55773437 21.54921875 0.25953125 22.3484375 1.1015625 23.171875 C1.72804688 23.77515625 2.35453125 24.3784375 3 25 C2.34 25.66 1.68 26.32 1 27 C-3.29 22.71 -7.58 18.42 -12 14 C-9.99006295 9.98012591 -8.06153611 7.85483005 -4.875 4.75 C-3.96492188 3.85796875 -3.05484375 2.9659375 -2.1171875 2.046875 C-1.41851562 1.37140625 -0.71984375 0.6959375 0 0 Z " fill="#121A20" transform="translate(70,44)"/>
<path d="M0 0 C0.66 0 1.32 0 2 0 C1.22856314 5.36499272 -0.10725019 10.52121929 -1.5 15.75 C-1.72558594 16.61238281 -1.95117188 17.47476563 -2.18359375 18.36328125 C-3.87017234 24.74034468 -3.87017234 24.74034468 -5 27 C-5.66 27 -6.32 27 -7 27 C-6.39215968 20.96994771 -5.16834954 15.38265654 -3.5 9.5625 C-3.27441406 8.74845703 -3.04882812 7.93441406 -2.81640625 7.09570312 C-1.13649644 1.13649644 -1.13649644 1.13649644 0 0 Z " fill="#1D2B34" transform="translate(82,44)"/>
<path d="M0 0 C0.66 0 1.32 0 2 0 C2 0.99 2 1.98 2 3 C4.31 3 6.62 3 9 3 C8.67 3.99 8.34 4.98 8 6 C3.38 6 -1.24 6 -6 6 C-6 5.01 -6 4.02 -6 3 C-4.02 3 -2.04 3 0 3 C0 2.01 0 1.02 0 0 Z " fill="#283E48" transform="translate(42,3)"/>
<path d="M0 0 C0.99 0.33 1.98 0.66 3 1 C1.27082397 2.72917603 -0.45874636 4.45790633 -2.19140625 6.18359375 C-3.54283183 7.54085702 -4.8712809 8.92106838 -6.1875 10.3125 C-8.02578165 12.0240036 -9.7013167 13.01485001 -12 14 C-10.41332422 10.09714233 -7.86649519 7.66479018 -4.875 4.75 C-3.96492188 3.85796875 -3.05484375 2.9659375 -2.1171875 2.046875 C-1.41851562 1.37140625 -0.71984375 0.6959375 0 0 Z " fill="#17232A" transform="translate(70,44)"/>
<path d="M0 0 C0.33 0.99 0.66 1.98 1 3 C-0.78572252 4.83947337 -2.57802449 6.67157741 -4.375 8.5 C-4.88289063 9.02464844 -5.39078125 9.54929687 -5.9140625 10.08984375 C-7.23832604 11.43153181 -8.61605865 12.71995815 -10 14 C-10.66 14 -11.32 14 -12 14 C-10.41332422 10.09714233 -7.86649519 7.66479018 -4.875 4.75 C-3.96492188 3.85796875 -3.05484375 2.9659375 -2.1171875 2.046875 C-1.41851562 1.37140625 -0.71984375 0.6959375 0 0 Z " fill="#11181F" transform="translate(98,57)"/>
<path d="M0 0 C1.32 0 2.64 0 4 0 C5.125 4.75 5.125 4.75 4 7 C2.02 7 0.04 7 -2 7 C-2.33 5.35 -2.66 3.7 -3 2 C-2.34 2 -1.68 2 -1 2 C-1 2.99 -1 3.98 -1 5 C-0.01 5 0.98 5 2 5 C2 4.01 2 3.02 2 2 C1.34 2 0.68 2 0 2 C0 1.34 0 0.68 0 0 Z " fill="#1D252B" transform="translate(42,89)"/>
<path d="M0 0 C0.66 0 1.32 0 2 0 C1.22225866 5.05531868 0.14051606 10.01716284 -1 15 C-3.1272354 11.60749448 -3.07084862 9.67073881 -2.1875 5.8125 C-1.99542969 4.93207031 -1.80335937 4.05164062 -1.60546875 3.14453125 C-1 1 -1 1 0 0 Z " fill="#22343E" transform="translate(82,44)"/>
<path d="M0 0 C1.134375 0.020625 2.26875 0.04125 3.4375 0.0625 C1.07796906 2.42203094 -0.34145617 2.55391413 -3.5625 3.0625 C-3.5625 5.0425 -3.5625 7.0225 -3.5625 9.0625 C-3.8925 9.0625 -4.2225 9.0625 -4.5625 9.0625 C-4.66015625 2.91015625 -4.66015625 2.91015625 -4.5625 1.0625 C-3.5625 0.0625 -3.5625 0.0625 0 0 Z " fill="#253741" transform="translate(64.5625,88.9375)"/>
<path d="M0 0 C0.66 0.33 1.32 0.66 2 1 C-1.625 5.875 -1.625 5.875 -5 7 C-3.75023244 3.34683329 -3.32901247 2.21934164 0 0 Z " fill="#2C2F33" transform="translate(50,33)"/>
<path d="M0 0 C0.99 0.33 1.98 0.66 3 1 C1.37660195 2.70884005 -0.29319053 4.37446717 -2 6 C-2.66 6 -3.32 6 -4 6 C-2.84826645 3.53199953 -1.95216435 1.95216435 0 0 Z " fill="#18232A" transform="translate(90,65)"/>
</svg>
